# xmcd CD database file
#
# Track frame offsets:
#	150
#	16687
#	32552
#	50157
#	68757
#	83227
#	101065
#	118615
#	132177
#	147995
#
# Disc length: 2186 seconds
#
# Revision: 3
# Processed by: cddbd v1.4PL0 Copyright (c) Steve Scherf et al.
# Submitted via: CDex 1.50Beta7
#
DISCID=8408880a
DTITLE=Michelle Wright - The Reasons Why
DYEAR=1994
DGENRE=Country
TTITLE0=One Good Man
TTITLE1=Safe In The Arms Of Love
TTITLE2=We've Tried Everything Else
TTITLE3=Cold Kisses
TTITLE4=The Reasons Why I'm Gone
TTITLE5=Try Getting Over You
TTITLE6=Where Do We Go From Here
TTITLE7=Tell Me More
TTITLE8=The Wall
TTITLE9=The Old Song And Dance
EXTD=YEAR: 1994
EXTT0=
EXTT1=
EXTT2=
EXTT3=
EXTT4=
EXTT5=
EXTT6=
EXTT7=
EXTT8=
EXTT9=
PLAYORDER=
